<svg width="96" height="96" xmlns="http://www.w3.org/2000/svg" xmlns:xlink="http://www.w3.org/1999/xlink" xml:space="preserve" overflow="hidden"><g transform="translate(-592 -312)"><path d="M611.681 398.706C611.243 399.081 610.598 399.081 610.16 398.706L604.292 392.838C603.907 392.415 603.899 391.771 604.274 391.338L628.99 367.777 627.615 366.339 602.878 389.9C601.7 391.11 601.7 393.039 602.878 394.249L608.746 400.117C609.964 401.296 611.901 401.289 613.11 400.1L636.5 375.638 635.129 374.2Z"/><path d="M626.427 344.466 634.069 336.735C635.242 335.531 635.242 333.612 634.069 332.408L624.635 322.876C623.43 321.703 621.509 321.703 620.304 322.876L612.34 330.845 611.514 330.07C610.31 328.894 608.387 328.894 607.183 330.07L604.169 333.083C603.009 334.281 602.999 336.181 604.146 337.392L604.946 338.24 602.812 340.375C602.277 340.877 601.866 341.496 601.612 342.184L596.268 356.168C595.819 357.254 596.102 358.504 596.975 359.291 597.799 360.12 599.007 360.436 600.131 360.117L614.719 355.352C615.487 355.114 616.188 354.698 616.764 354.138L618.471 352.43 664.058 400.124C665.264 401.296 667.183 401.296 668.389 400.124L674.125 394.388C675.301 393.175 675.294 391.245 674.109 390.041ZM605.583 334.5 608.6 331.485C609.037 331.095 609.7 331.104 610.126 331.507L610.926 332.259 606.358 336.827 605.583 336C605.196 335.575 605.196 334.925 605.583 334.5ZM615.35 352.723C614.994 353.061 614.563 353.311 614.093 353.452L599.577 358.2C599.12 358.32 598.634 358.172 598.321 357.819 598.081 357.595 597.999 357.248 598.114 356.94L603.491 342.862C603.649 342.455 603.899 342.09 604.222 341.795L621.722 324.295C622.148 323.909 622.796 323.909 623.222 324.295L632.656 333.826C633.044 334.253 633.044 334.906 632.656 335.333ZM672.711 392.974 666.975 398.709C666.555 399.091 665.916 399.099 665.487 398.726L619.887 351.016 625.018 345.884 672.711 391.471C673.097 391.898 673.097 392.547 672.711 392.974Z"/><path d="M669.636 329.442 654.85 319.585C653.64 318.709 651.976 318.829 650.905 319.87L642.105 328.57 642.027 328.656C641.507 329.305 641.223 330.111 641.221 330.943L641.234 331.107C641.378 331.963 641.85 332.73 642.549 333.245L654.217 340.963 640.648 353.909 642.092 355.289 655.8 342.225 660.87 347.3 647.906 360.847 649.348 362.224 662.129 348.874 669.7 360.231C670.249 360.899 671.026 361.341 671.881 361.472 672.812 361.587 673.744 361.27 674.411 360.61L683.222 351.9C684.259 350.843 684.391 349.195 683.535 347.987L673.162 332.9 669.915 329.648ZM681.812 350.483 673 359.193C672.789 359.397 672.504 359.508 672.21 359.5 671.869 359.453 671.552 359.296 671.31 359.051L663.041 346.651 656.441 340.051 643.723 331.634C643.47 331.446 643.292 331.173 643.223 330.865 643.24 330.534 643.356 330.215 643.557 329.951L652.317 321.288C652.703 320.943 653.277 320.913 653.696 321.217L668.58 331.142 671.637 334.2 681.911 349.154C682.188 349.567 682.147 350.116 681.812 350.483Z"/></g></svg>