<svg width="96" height="96" xmlns="http://www.w3.org/2000/svg" xmlns:xlink="http://www.w3.org/1999/xlink" xml:space="preserve" overflow="hidden"><g transform="translate(-592 -312)"><path d="M596.1 356.2 601.6 341.8C601.8 341.2 602.2 340.7 602.6 340.3L605.5 337.4 604 335.8C603.2 335 603.2 333.6 604 332.8L607.1 329.7C607.9 328.9 609.3 328.9 610.1 329.7L611.7 331.2 620.6 322.3C621.4 321.5 622.8 321.5 623.6 322.3L633.3 332.1C634.1 332.9 634.1 334.3 633.3 335.1L624.7 343.8 674.5 391.4C675.3 392.2 675.3 393.6 674.5 394.4L668.6 400.3C667.8 401.1 666.4 401.1 665.6 400.3L618 350.5 615.5 353C615 353.5 614.4 353.8 613.8 354L598.8 358.9C598 359.1 597.2 358.9 596.6 358.3 596 357.8 595.8 356.9 596.1 356.2Z"/><path d="M656.1 340.4 643.1 331.8C642.6 331.4 642.3 330.9 642.2 330.3 642.2 329.7 642.4 329.1 642.8 328.6L651.8 319.7C652.5 319 653.7 318.9 654.5 319.5L669.8 329.7C669.9 329.7 670 329.8 670 329.9L670.1 330 673 332.9 673.2 333.1 673.3 333.2 673.3 333.3 683.6 348.3C684.2 349.1 684.1 350.3 683.4 351L674.4 359.9C674 360.3 673.3 360.6 672.7 360.5 672.1 360.4 671.5 360.1 671.1 359.6L662.7 347 649.1 361.2 641.7 354.1 656.1 340.4Z"/><path d="M611.7 400.3C610.9 401.1 609.5 401.1 608.7 400.3L602.7 394.3C601.9 393.5 601.9 392.1 602.7 391.3L628 367.2 635.7 375.2 611.7 400.3Z"/></g></svg>